<mxfile host="app.diagrams.net" agent="Mozilla/5.0 (Windows NT 10.0; Win64; x64) AppleWebKit/537.36 (KHTML, like Gecko) Chrome/132.0.0.0 Safari/537.36" version="26.0.12">
  <diagram name="Page-1" id="sFyFFLWE3zrf6xJoE_wG">
    <mxGraphModel dx="1034" dy="458" grid="1" gridSize="10" guides="1" tooltips="1" connect="1" arrows="1" fold="1" page="1" pageScale="1" pageWidth="2000" pageHeight="2000" math="0" shadow="0">
      <root>
        <mxCell id="0" />
        <mxCell id="1" parent="0" />
        <mxCell id="pBx2m6kY-spv49Authqy-5" style="edgeStyle=orthogonalEdgeStyle;rounded=0;orthogonalLoop=1;jettySize=auto;html=1;entryX=0;entryY=0.5;entryDx=0;entryDy=0;" edge="1" parent="1" source="pBx2m6kY-spv49Authqy-3" target="pBx2m6kY-spv49Authqy-4">
          <mxGeometry relative="1" as="geometry" />
        </mxCell>
        <mxCell id="pBx2m6kY-spv49Authqy-9" value="ties.com" style="edgeLabel;html=1;align=center;verticalAlign=middle;resizable=0;points=[];" vertex="1" connectable="0" parent="pBx2m6kY-spv49Authqy-5">
          <mxGeometry x="0.037" y="-5" relative="1" as="geometry">
            <mxPoint as="offset" />
          </mxGeometry>
        </mxCell>
        <mxCell id="pBx2m6kY-spv49Authqy-3" value="User" style="shape=umlActor;verticalLabelPosition=bottom;verticalAlign=top;html=1;outlineConnect=0;" vertex="1" parent="1">
          <mxGeometry x="180" y="170" width="30" height="60" as="geometry" />
        </mxCell>
        <mxCell id="pBx2m6kY-spv49Authqy-8" style="edgeStyle=orthogonalEdgeStyle;rounded=0;orthogonalLoop=1;jettySize=auto;html=1;entryX=0;entryY=0.5;entryDx=0;entryDy=0;exitX=1;exitY=0.25;exitDx=0;exitDy=0;" edge="1" parent="1" source="pBx2m6kY-spv49Authqy-4" target="pBx2m6kY-spv49Authqy-6">
          <mxGeometry relative="1" as="geometry" />
        </mxCell>
        <mxCell id="pBx2m6kY-spv49Authqy-13" value="view_products()" style="edgeLabel;html=1;align=center;verticalAlign=middle;resizable=0;points=[];" vertex="1" connectable="0" parent="pBx2m6kY-spv49Authqy-8">
          <mxGeometry x="-0.0583" y="4" relative="1" as="geometry">
            <mxPoint x="9" y="-10" as="offset" />
          </mxGeometry>
        </mxCell>
        <mxCell id="pBx2m6kY-spv49Authqy-4" value="Homepage" style="rounded=0;whiteSpace=wrap;html=1;" vertex="1" parent="1">
          <mxGeometry x="300" y="170" width="120" height="60" as="geometry" />
        </mxCell>
        <mxCell id="pBx2m6kY-spv49Authqy-15" style="edgeStyle=orthogonalEdgeStyle;rounded=0;orthogonalLoop=1;jettySize=auto;html=1;" edge="1" parent="1" source="pBx2m6kY-spv49Authqy-6" target="pBx2m6kY-spv49Authqy-14">
          <mxGeometry relative="1" as="geometry" />
        </mxCell>
        <mxCell id="pBx2m6kY-spv49Authqy-19" value="add_to_cart()" style="edgeLabel;html=1;align=center;verticalAlign=middle;resizable=0;points=[];" vertex="1" connectable="0" parent="pBx2m6kY-spv49Authqy-15">
          <mxGeometry x="-0.0583" y="-4" relative="1" as="geometry">
            <mxPoint as="offset" />
          </mxGeometry>
        </mxCell>
        <mxCell id="pBx2m6kY-spv49Authqy-6" value="Products" style="rounded=0;whiteSpace=wrap;html=1;" vertex="1" parent="1">
          <mxGeometry x="550" y="90" width="120" height="60" as="geometry" />
        </mxCell>
        <mxCell id="pBx2m6kY-spv49Authqy-14" value="Add to cart" style="rounded=0;whiteSpace=wrap;html=1;" vertex="1" parent="1">
          <mxGeometry x="820" y="90" width="120" height="60" as="geometry" />
        </mxCell>
        <mxCell id="pBx2m6kY-spv49Authqy-16" value="Cart" style="rounded=0;whiteSpace=wrap;html=1;" vertex="1" parent="1">
          <mxGeometry x="540" y="230" width="120" height="60" as="geometry" />
        </mxCell>
        <mxCell id="pBx2m6kY-spv49Authqy-17" style="edgeStyle=orthogonalEdgeStyle;rounded=0;orthogonalLoop=1;jettySize=auto;html=1;entryX=-0.006;entryY=0.633;entryDx=0;entryDy=0;entryPerimeter=0;" edge="1" parent="1" source="pBx2m6kY-spv49Authqy-4" target="pBx2m6kY-spv49Authqy-16">
          <mxGeometry relative="1" as="geometry" />
        </mxCell>
        <mxCell id="pBx2m6kY-spv49Authqy-18" value="view_cart()" style="edgeLabel;html=1;align=center;verticalAlign=middle;resizable=0;points=[];" vertex="1" connectable="0" parent="pBx2m6kY-spv49Authqy-17">
          <mxGeometry x="-0.0104" y="-1" relative="1" as="geometry">
            <mxPoint as="offset" />
          </mxGeometry>
        </mxCell>
      </root>
    </mxGraphModel>
  </diagram>
</mxfile>
